<svg width="320" height="320" viewBox="0 0 320 320" fill="none" xmlns="http://www.w3.org/2000/svg">
  <rect width="320" height="320" rx="44" fill="#050607"/>
  <path d="M42 118L160 28L225 84V59H251V118H217L160 60L81 118H42Z" fill="#F5F7FA"/>
  <rect x="145" y="72" width="13" height="13" fill="#F5F7FA"/>
  <rect x="161" y="72" width="13" height="13" fill="#F5F7FA"/>
  <rect x="145" y="88" width="13" height="13" fill="#F5F7FA"/>
  <rect x="161" y="88" width="13" height="13" fill="#F5F7FA"/>
  <path d="M88 164C88 141 106 123 129 123H209C232 123 250 141 250 164V198C250 221 232 239 209 239H129C106 239 88 221 88 198V164Z" fill="#146D79"/>
  <path d="M115 217C114 183 114 170 121 157C126 147 136 141 147 141H195C205 141 214 146 219 154C226 166 226 181 225 216H206C206 192 206 182 203 176C200 170 195 166 189 165C182 163 173 163 155 163C136 163 128 163 122 166C117 169 114 173 112 180C110 188 110 198 111 217H115Z" fill="#0B1011"/>
  <path d="M130 178C139 178 143 168 139 161C135 154 124 155 122 163C121 170 124 178 130 178Z" fill="#D7DCE4"/>
  <path d="M138 145L142 156L153 160L142 164L138 175L134 164L123 160L134 156L138 145Z" fill="#F5F7FA"/>
  <path d="M69 152C87 205 129 249 194 264C223 270 249 269 271 262C248 296 213 315 171 315C96 315 40 249 40 174C40 165 41 157 44 151C50 149 59 149 69 152Z" fill="#D7DCE4"/>
  <path d="M51 152C99 249 218 283 280 260" stroke="#0B1011" stroke-width="6" stroke-linecap="round"/>
</svg>